# xmcd CD database file
#
# Track frame offsets:
#	150
#	21293
#	42996
#	64061
#
# Disc length: 1139 seconds
#
# Revision: 1
# Processed by: cddbd v1.5.2PL0 Copyright (c) Steve Scherf et al.
# Submitted via: CDex 1.70beta2
#
DISCID=2f047104
DTITLE=戦慄の子供たち - ALI PROJECT
DYEAR=2007
DGENRE=JPop
TTITLE0=戦慄の子供たち
TTITLE1=Hell's Maria
TTITLE2=戦慄の子供たち [instrumental]
TTITLE3=Hell's Maria [instrumental]
EXTD=YEAR: 2007
EXTT0=
EXTT1=
EXTT2=
EXTT3=
PLAYORDER=
